<svg width="142" height="52" viewBox="0 0 142 52" fill="none" xmlns="http://www.w3.org/2000/svg">
<path d="M3.01619 12.5857H2.43028e-06L0.0298584 -6.13063e-07H3.01619V12.5857Z" transform="translate(115.342 8.4375)" fill="#1EE62C"/>
<path d="M26.9367 52H7.40609V40.8507H-6.0757e-07V30.4748H3.04606V37.7771H10.4522V48.9264H23.8906V8.43732H45.1632V1.53266e-07H55.3864V34.1611H74.5985V30.4748H77.6446V37.2347H52.3304V3.07359H48.2093V11.521H26.9367V52Z" transform="translate(33.4668)" fill="#1EE62C"/>
<path d="M7.59463e-08 0H3.01619V4.74097L3.713 3.48542L6.37084 0H9.88475L5.42516 5.4943L10.0042 12.0232H6.5102L3.34469 7.54337L3.00624 7.90497V12.0232H7.59463e-08V0Z" transform="translate(0 18.4414)" fill="black"/>
<path d="M7.93368 9.2007H4.14104L3.23519 12.1337H6.0757e-07L4.07136 -6.13063e-07H8.02327L12.1344 12.1437H8.87935L7.93368 9.2007ZM5.99257 2.18969L5.68398 3.87715L4.9374 6.46861H7.13733L6.42061 3.87715L6.11202 2.18969H5.99257Z" transform="translate(12.0842 18.332)" fill="black"/>
<path d="M6.34097 2.67182H3.06596V12.0332H1.21514e-06V0H9.37707V12.0232H6.33102V2.67182H6.34097Z" transform="translate(27.1255 18.4424)" fill="black"/>
<path d="M8.26218 2.88275L7.34637 5.47421L4.28041 12.0433H0V0.0100444H3.01619V6.46861L2.58815 9.42167L2.67774 9.45181L3.75282 6.5791L6.91833 -6.13063e-07H10.9399V12.0232H7.89386V5.53448L8.39158 2.90284L8.26218 2.88275Z" transform="translate(40.6436 18.4316)" fill="black"/>
<path d="M8.56081 0V2.64168H5.78352V12.0232H2.73747V2.64168H1.21514e-06V0H8.56081Z" transform="translate(54.6003 18.4424)" fill="black"/>
<path d="M7.93368 9.2007H4.14104L3.23519 12.1337H-2.43028e-06L4.07136 -6.13063e-07H8.02327L12.1444 12.1437H8.88931L7.93368 9.2007ZM5.99257 2.18969L5.68398 3.87715L4.9374 6.46861H7.13733L6.42061 3.87715L6.11202 2.18969H5.99257Z" transform="translate(64.2458 18.332)" fill="black"/>
<path d="M2.29947 0H10.3128V12.0232H7.26673V2.61155H5.1564L4.98717 6.35812C4.95731 8.41723 4.43968 11.4105 1.15471 12.2542L-2.43028e-06 10.1951C1.87143 9.23083 1.82166 8.18621 1.97098 6.29786L2.29947 0Z" transform="translate(78.5305 18.4424)" fill="black"/>
<path d="M12.3435 6.23759C12.3435 10.0143 9.53635 12.4551 6.18171 12.4551C2.80715 12.4551 1.21514e-06 10.0344 1.21514e-06 6.23759C1.21514e-06 2.46089 2.80715 0 6.18171 0C9.53635 0 12.3435 2.51111 12.3435 6.23759ZM6.18171 9.68283C7.71469 9.68283 9.27753 8.81901 9.27753 6.22754C9.27753 3.73653 7.69477 2.76222 6.16179 2.76222C4.54917 2.76222 3.06596 3.91733 3.06596 6.22754C3.06596 8.5679 4.64872 9.68283 6.18171 9.68283Z" transform="translate(92.228 18.2412)" fill="black"/>
<path d="M7.29659 2.58142H3.02615V12.0332H2.43028e-06V0H7.30656V2.58142H7.29659Z" transform="translate(108.075 18.4424)" fill="black"/>
<path d="M8.25222 2.88275L7.33642 5.47421L4.27045 12.0332H-4.86056e-06V0.0100444H3.01619V6.46861L2.58815 9.42167L2.67774 9.45181L3.75282 6.5791L6.91832 -6.13063e-07H10.9399V12.0232H7.89386V5.53448L8.39158 2.90284L8.25222 2.88275Z" transform="translate(118.358 18.4316)" fill="black"/>
<path d="M2.87683 7.34248C1.03526 6.88043 0.428036 5.38381 0.408127 3.99768C0.378263 1.8984 2.11033 6.13063e-07 4.98716 6.13063e-07H9.41689V12.0232H6.39075V7.82461H5.74371L3.30488 12.0131H-2.43028e-06L2.87683 7.34248ZM6.37083 5.35368V2.59146H4.97721C3.95191 2.59146 3.46414 3.29457 3.46414 3.98764C3.46414 4.67066 3.96186 5.36372 4.92744 5.36372H6.37083V5.35368Z" transform="translate(132.583 18.4521)" fill="black"/>
</svg>
